# xmcd CD database file
#
# Track frame offsets:
#	150
#	15310
#	29433
#	47900
#	64795
#	81868
#	98140
#	114428
#	133008
#	148760
#	163685
#	185653
#	200018
#	221190
#
# Disc length: 3194 seconds
#
# Revision: 0
# Processed by: cddbd v1.4PL0 Copyright (c) Steve Scherf et al.
# Submitted via: CDex 1.40Release
#
DISCID=ce0c780e
DTITLE=Ruud Hermans - Blue Horizon
DYEAR=1900
DGENRE=Country
TTITLE0=Doing Timne
TTITLE1=Anytime is not enough
TTITLE2=You'll be the first one to know
TTITLE3=Thin white line
TTITLE4=Innocent Youth
TTITLE5=Can you help me out of this dream
TTITLE6=No Next times
TTITLE7=Today somebody told me
TTITLE8=Waiting for you
TTITLE9=If you were mine
TTITLE10=It's gotta be love tonight
TTITLE11=Pick up the pieces
TTITLE12=If lonely would be the answer
TTITLE13=Blue horizon
EXTD=ID3G: 2
EXTT0=
EXTT1=
EXTT2=
EXTT3=
EXTT4=
EXTT5=
EXTT6=
EXTT7=
EXTT8=
EXTT9=
EXTT10=
EXTT11=
EXTT12=
EXTT13=
PLAYORDER=
